<svg preserveAspectRatio="none" overflow="visible" style="display: block;" width="1775" height="728.047" viewBox="0 0 1775 728.047" fill="none" xmlns="http://www.w3.org/2000/svg">
<g id="Horizontal Container" opacity="0.2">
<path id="Union" d="M126.647 727.795L0.145519 601.099L1.11018e-05 600.952L5.22638e-05 130.113L0.141654 129.968L126.644 0.255916L126.79 0.105525L181.101 0.10553L181.101 75.8546L148.44 75.8546C106.087 75.8547 71.7547 110.188 71.754 152.54L71.7539 577.246C71.7551 619.598 106.088 653.933 148.439 653.933L181.101 653.933L181.101 727.941L126.794 727.941L126.647 727.795ZM180.101 654.933L148.439 654.933C105.535 654.933 70.7551 620.15 70.7539 577.246L70.754 152.54C70.7547 109.636 105.535 74.8547 148.44 74.8546L180.101 74.8546L180.101 1.10553L127.212 1.10553L1.00005 130.521L1.00001 600.539L127.209 726.941L180.101 726.941L180.101 654.933Z" fill="black"/>
<path id="Union_2" d="M1648.35 0.252014L1774.86 126.948L1775 127.095V597.934L1774.86 598.079L1648.36 727.791L1648.21 727.941H1593.9V652.192H1626.56C1668.91 652.192 1703.25 617.859 1703.25 575.507V150.801C1703.25 108.449 1668.91 74.1144 1626.56 74.1143H1593.9V0.10553H1648.21L1648.35 0.252014ZM1594.9 73.1143H1626.56C1669.47 73.1144 1704.25 107.897 1704.25 150.801V575.507C1704.25 618.411 1669.47 653.192 1626.56 653.192H1594.9V726.941H1647.79L1774 597.526V127.508L1647.79 1.10553H1594.9V73.1143Z" fill="black"/>
</g>
</svg>
